<mxfile host="app.diagrams.net" modified="2024-05-12T00:53:21.854Z" agent="Mozilla/5.0 (Windows NT 10.0; Win64; x64) AppleWebKit/537.36 (KHTML, like Gecko) Chrome/124.0.0.0 Safari/537.36" etag="mPR__sIvjRrJs7KlMW1n" version="24.4.0" type="github">
  <diagram name="Página-1" id="WT7hfLJT9qiMbYiOzxR-">
    <mxGraphModel dx="2074" dy="1114" grid="1" gridSize="10" guides="1" tooltips="1" connect="1" arrows="1" fold="1" page="1" pageScale="1" pageWidth="1169" pageHeight="827" math="0" shadow="0">
      <root>
        <mxCell id="0" />
        <mxCell id="1" parent="0" />
        <mxCell id="NLfXD7O3pRbXmPX5Px7o-197" value="" style="group" vertex="1" connectable="0" parent="1">
          <mxGeometry y="1" width="1160" height="819" as="geometry" />
        </mxCell>
        <mxCell id="NLfXD7O3pRbXmPX5Px7o-6" value="Solicitud de Accesos" style="swimlane;html=1;childLayout=stackLayout;resizeParent=1;resizeParentMax=0;horizontal=1;startSize=20;horizontalStack=0;whiteSpace=wrap;spacingTop=5;fontSize=10;container=1;" vertex="1" parent="NLfXD7O3pRbXmPX5Px7o-197">
          <mxGeometry width="1160" height="819" as="geometry" />
        </mxCell>
        <mxCell id="NLfXD7O3pRbXmPX5Px7o-7" value="Empleado" style="swimlane;html=1;startSize=30;horizontal=0;fontSize=10;" vertex="1" parent="NLfXD7O3pRbXmPX5Px7o-197">
          <mxGeometry y="20" width="1160" height="150" as="geometry" />
        </mxCell>
        <mxCell id="NLfXD7O3pRbXmPX5Px7o-17" style="edgeStyle=orthogonalEdgeStyle;rounded=0;orthogonalLoop=1;jettySize=auto;html=1;" edge="1" parent="NLfXD7O3pRbXmPX5Px7o-7" source="NLfXD7O3pRbXmPX5Px7o-15" target="NLfXD7O3pRbXmPX5Px7o-16">
          <mxGeometry relative="1" as="geometry" />
        </mxCell>
        <mxCell id="NLfXD7O3pRbXmPX5Px7o-15" value="" style="points=[[0.145,0.145,0],[0.5,0,0],[0.855,0.145,0],[1,0.5,0],[0.855,0.855,0],[0.5,1,0],[0.145,0.855,0],[0,0.5,0]];shape=mxgraph.bpmn.event;html=1;verticalLabelPosition=bottom;labelBackgroundColor=#ffffff;verticalAlign=top;align=center;perimeter=ellipsePerimeter;outlineConnect=0;aspect=fixed;outline=standard;symbol=general;" vertex="1" parent="NLfXD7O3pRbXmPX5Px7o-7">
          <mxGeometry x="43.382113821138205" y="52" width="31.790980473907307" height="31.790980473907307" as="geometry" />
        </mxCell>
        <mxCell id="NLfXD7O3pRbXmPX5Px7o-16" value="Iniciar solicitud de accesos" style="points=[[0.25,0,0],[0.5,0,0],[0.75,0,0],[1,0.25,0],[1,0.5,0],[1,0.75,0],[0.75,1,0],[0.5,1,0],[0.25,1,0],[0,0.75,0],[0,0.5,0],[0,0.25,0]];shape=mxgraph.bpmn.task;whiteSpace=wrap;rectStyle=rounded;size=10;html=1;container=1;expand=0;collapsible=0;taskMarker=abstract;fontSize=10;" vertex="1" parent="NLfXD7O3pRbXmPX5Px7o-7">
          <mxGeometry x="97.13821138211382" y="49.5" width="100.91056910569107" height="40.5" as="geometry" />
        </mxCell>
        <mxCell id="NLfXD7O3pRbXmPX5Px7o-195" style="edgeStyle=orthogonalEdgeStyle;rounded=0;orthogonalLoop=1;jettySize=auto;html=1;" edge="1" parent="NLfXD7O3pRbXmPX5Px7o-7" source="NLfXD7O3pRbXmPX5Px7o-191" target="NLfXD7O3pRbXmPX5Px7o-193">
          <mxGeometry relative="1" as="geometry" />
        </mxCell>
        <mxCell id="NLfXD7O3pRbXmPX5Px7o-191" value="Recibe solicitud" style="points=[[0.25,0,0],[0.5,0,0],[0.75,0,0],[1,0.25,0],[1,0.5,0],[1,0.75,0],[0.75,1,0],[0.5,1,0],[0.25,1,0],[0,0.75,0],[0,0.5,0],[0,0.25,0]];shape=mxgraph.bpmn.task;whiteSpace=wrap;rectStyle=rounded;size=10;html=1;container=1;expand=0;collapsible=0;taskMarker=abstract;fontSize=10;" vertex="1" parent="NLfXD7O3pRbXmPX5Px7o-7">
          <mxGeometry x="608" y="90" width="119.07" height="33.79" as="geometry" />
        </mxCell>
        <mxCell id="NLfXD7O3pRbXmPX5Px7o-193" value="Envía documentación faltante" style="points=[[0.25,0,0],[0.5,0,0],[0.75,0,0],[1,0.25,0],[1,0.5,0],[1,0.75,0],[0.75,1,0],[0.5,1,0],[0.25,1,0],[0,0.75,0],[0,0.5,0],[0,0.25,0]];shape=mxgraph.bpmn.task;whiteSpace=wrap;rectStyle=rounded;size=10;html=1;container=1;expand=0;collapsible=0;taskMarker=abstract;fontSize=10;" vertex="1" parent="NLfXD7O3pRbXmPX5Px7o-7">
          <mxGeometry x="608" y="36" width="119.07" height="33.79" as="geometry" />
        </mxCell>
        <mxCell id="NLfXD7O3pRbXmPX5Px7o-86" style="edgeStyle=orthogonalEdgeStyle;rounded=0;orthogonalLoop=1;jettySize=auto;html=1;" edge="1" parent="NLfXD7O3pRbXmPX5Px7o-197" source="NLfXD7O3pRbXmPX5Px7o-16" target="NLfXD7O3pRbXmPX5Px7o-21">
          <mxGeometry relative="1" as="geometry" />
        </mxCell>
        <mxCell id="NLfXD7O3pRbXmPX5Px7o-8" value="Administrador&lt;div style=&quot;font-size: 10px;&quot;&gt;de acesos&lt;/div&gt;" style="swimlane;html=1;startSize=30;horizontal=0;container=0;fontSize=10;" vertex="1" parent="NLfXD7O3pRbXmPX5Px7o-197">
          <mxGeometry y="169" width="1160" height="270" as="geometry" />
        </mxCell>
        <mxCell id="NLfXD7O3pRbXmPX5Px7o-25" style="edgeStyle=orthogonalEdgeStyle;rounded=0;orthogonalLoop=1;jettySize=auto;html=1;" edge="1" parent="NLfXD7O3pRbXmPX5Px7o-8" source="NLfXD7O3pRbXmPX5Px7o-21" target="NLfXD7O3pRbXmPX5Px7o-24">
          <mxGeometry relative="1" as="geometry" />
        </mxCell>
        <mxCell id="NLfXD7O3pRbXmPX5Px7o-84" value="¿Requiere&amp;nbsp;&lt;div style=&quot;font-size: 8px;&quot;&gt;documentación?&lt;/div&gt;" style="edgeLabel;html=1;align=center;verticalAlign=middle;resizable=0;points=[];fontSize=8;" vertex="1" connectable="0" parent="NLfXD7O3pRbXmPX5Px7o-25">
          <mxGeometry x="-0.1133" y="-1" relative="1" as="geometry">
            <mxPoint y="-2" as="offset" />
          </mxGeometry>
        </mxCell>
        <mxCell id="NLfXD7O3pRbXmPX5Px7o-21" value="Revisa solicitud de acceso" style="points=[[0.25,0,0],[0.5,0,0],[0.75,0,0],[1,0.25,0],[1,0.5,0],[1,0.75,0],[0.75,1,0],[0.5,1,0],[0.25,1,0],[0,0.75,0],[0,0.5,0],[0,0.25,0]];shape=mxgraph.bpmn.task;whiteSpace=wrap;rectStyle=rounded;size=10;html=1;container=1;expand=0;collapsible=0;taskMarker=abstract;fontSize=10;" vertex="1" parent="NLfXD7O3pRbXmPX5Px7o-8">
          <mxGeometry x="52.8130081300813" y="33.5" width="104.68292682926827" height="39.5" as="geometry" />
        </mxCell>
        <mxCell id="NLfXD7O3pRbXmPX5Px7o-57" style="edgeStyle=orthogonalEdgeStyle;rounded=0;orthogonalLoop=1;jettySize=auto;html=1;entryX=0;entryY=0.5;entryDx=0;entryDy=0;entryPerimeter=0;" edge="1" parent="NLfXD7O3pRbXmPX5Px7o-8" target="NLfXD7O3pRbXmPX5Px7o-56">
          <mxGeometry relative="1" as="geometry">
            <mxPoint x="278.2113821138212" y="54" as="sourcePoint" />
            <mxPoint x="331.9674796747967" y="54" as="targetPoint" />
          </mxGeometry>
        </mxCell>
        <mxCell id="NLfXD7O3pRbXmPX5Px7o-60" value="No" style="edgeLabel;html=1;align=center;verticalAlign=middle;resizable=0;points=[];fontSize=10;" vertex="1" connectable="0" parent="NLfXD7O3pRbXmPX5Px7o-57">
          <mxGeometry x="-0.0381" y="-1" relative="1" as="geometry">
            <mxPoint x="-4" y="-1" as="offset" />
          </mxGeometry>
        </mxCell>
        <mxCell id="NLfXD7O3pRbXmPX5Px7o-24" value="" style="points=[[0.25,0.25,0],[0.5,0,0],[0.75,0.25,0],[1,0.5,0],[0.75,0.75,0],[0.5,1,0],[0.25,0.75,0],[0,0.5,0]];shape=mxgraph.bpmn.gateway2;html=1;verticalLabelPosition=bottom;labelBackgroundColor=#ffffff;verticalAlign=top;align=center;perimeter=rhombusPerimeter;outlineConnect=0;outline=none;symbol=none;" vertex="1" parent="NLfXD7O3pRbXmPX5Px7o-8">
          <mxGeometry x="241.4308943089431" y="37" width="36.78048780487805" height="34" as="geometry" />
        </mxCell>
        <mxCell id="NLfXD7O3pRbXmPX5Px7o-28" value="Enviar solicitud de aprobación" style="points=[[0.25,0,0],[0.5,0,0],[0.75,0,0],[1,0.25,0],[1,0.5,0],[1,0.75,0],[0.75,1,0],[0.5,1,0],[0.25,1,0],[0,0.75,0],[0,0.5,0],[0,0.25,0]];shape=mxgraph.bpmn.task;whiteSpace=wrap;rectStyle=rounded;size=10;html=1;container=1;expand=0;collapsible=0;taskMarker=abstract;fontSize=10;" vertex="1" parent="NLfXD7O3pRbXmPX5Px7o-8">
          <mxGeometry x="205.59349593495935" y="135" width="108.45528455284553" height="40" as="geometry" />
        </mxCell>
        <mxCell id="NLfXD7O3pRbXmPX5Px7o-79" style="edgeStyle=orthogonalEdgeStyle;rounded=0;orthogonalLoop=1;jettySize=auto;html=1;entryX=0;entryY=0.5;entryDx=0;entryDy=0;exitX=1;exitY=0.5;exitDx=0;exitDy=0;exitPerimeter=0;" edge="1" parent="NLfXD7O3pRbXmPX5Px7o-8" source="NLfXD7O3pRbXmPX5Px7o-56" target="NLfXD7O3pRbXmPX5Px7o-78">
          <mxGeometry relative="1" as="geometry">
            <mxPoint x="476.8211382113821" y="54" as="targetPoint" />
            <mxPoint x="448.5284552845528" y="54" as="sourcePoint" />
          </mxGeometry>
        </mxCell>
        <mxCell id="NLfXD7O3pRbXmPX5Px7o-87" value="¿Cuenta con la&amp;nbsp;&lt;div style=&quot;font-size: 8px;&quot;&gt;necesaria?&lt;/div&gt;" style="edgeLabel;html=1;align=center;verticalAlign=middle;resizable=0;points=[];fontSize=8;" vertex="1" connectable="0" parent="NLfXD7O3pRbXmPX5Px7o-79">
          <mxGeometry x="0.0975" y="-2" relative="1" as="geometry">
            <mxPoint x="-9" y="-2" as="offset" />
          </mxGeometry>
        </mxCell>
        <mxCell id="NLfXD7O3pRbXmPX5Px7o-56" value="Verificar documentación" style="points=[[0.25,0,0],[0.5,0,0],[0.75,0,0],[1,0.25,0],[1,0.5,0],[1,0.75,0],[0.75,1,0],[0.5,1,0],[0.25,1,0],[0,0.75,0],[0,0.5,0],[0,0.25,0]];shape=mxgraph.bpmn.task;whiteSpace=wrap;rectStyle=rounded;size=10;html=1;container=1;expand=0;collapsible=0;taskMarker=abstract;fontSize=10;" vertex="1" parent="NLfXD7O3pRbXmPX5Px7o-8">
          <mxGeometry x="353.08130081300817" y="34" width="75.44715447154472" height="40" as="geometry" />
        </mxCell>
        <mxCell id="NLfXD7O3pRbXmPX5Px7o-63" style="edgeStyle=orthogonalEdgeStyle;rounded=0;orthogonalLoop=1;jettySize=auto;html=1;entryX=0.5;entryY=-0.075;entryDx=0;entryDy=0;entryPerimeter=0;" edge="1" parent="NLfXD7O3pRbXmPX5Px7o-8" source="NLfXD7O3pRbXmPX5Px7o-24" target="NLfXD7O3pRbXmPX5Px7o-28">
          <mxGeometry relative="1" as="geometry" />
        </mxCell>
        <mxCell id="NLfXD7O3pRbXmPX5Px7o-64" value="Si" style="edgeLabel;html=1;align=center;verticalAlign=middle;resizable=0;points=[];fontSize=10;" vertex="1" connectable="0" parent="NLfXD7O3pRbXmPX5Px7o-63">
          <mxGeometry x="0.2248" relative="1" as="geometry">
            <mxPoint x="-1" y="-3" as="offset" />
          </mxGeometry>
        </mxCell>
        <mxCell id="NLfXD7O3pRbXmPX5Px7o-189" style="edgeStyle=orthogonalEdgeStyle;rounded=0;orthogonalLoop=1;jettySize=auto;html=1;" edge="1" parent="NLfXD7O3pRbXmPX5Px7o-8" source="NLfXD7O3pRbXmPX5Px7o-78" target="NLfXD7O3pRbXmPX5Px7o-188">
          <mxGeometry relative="1" as="geometry" />
        </mxCell>
        <mxCell id="NLfXD7O3pRbXmPX5Px7o-190" value="No" style="edgeLabel;html=1;align=center;verticalAlign=middle;resizable=0;points=[];fontSize=8;" vertex="1" connectable="0" parent="NLfXD7O3pRbXmPX5Px7o-189">
          <mxGeometry x="-0.252" relative="1" as="geometry">
            <mxPoint as="offset" />
          </mxGeometry>
        </mxCell>
        <mxCell id="NLfXD7O3pRbXmPX5Px7o-78" value="" style="rhombus;whiteSpace=wrap;html=1;fontSize=10;" vertex="1" parent="NLfXD7O3pRbXmPX5Px7o-8">
          <mxGeometry x="531.520325203252" y="42" width="23.577235772357724" height="24" as="geometry" />
        </mxCell>
        <mxCell id="NLfXD7O3pRbXmPX5Px7o-92" style="edgeStyle=orthogonalEdgeStyle;rounded=0;orthogonalLoop=1;jettySize=auto;html=1;entryX=0;entryY=0.5;entryDx=0;entryDy=0;" edge="1" parent="NLfXD7O3pRbXmPX5Px7o-8" source="NLfXD7O3pRbXmPX5Px7o-81" target="NLfXD7O3pRbXmPX5Px7o-91">
          <mxGeometry relative="1" as="geometry" />
        </mxCell>
        <mxCell id="NLfXD7O3pRbXmPX5Px7o-93" value="¿Requiere?" style="edgeLabel;html=1;align=center;verticalAlign=middle;resizable=0;points=[];fontSize=8;" vertex="1" connectable="0" parent="NLfXD7O3pRbXmPX5Px7o-92">
          <mxGeometry x="0.1522" y="1" relative="1" as="geometry">
            <mxPoint x="-9" as="offset" />
          </mxGeometry>
        </mxCell>
        <mxCell id="NLfXD7O3pRbXmPX5Px7o-81" value="Verificar si requiere instalación de software" style="points=[[0.25,0,0],[0.5,0,0],[0.75,0,0],[1,0.25,0],[1,0.5,0],[1,0.75,0],[0.75,1,0],[0.5,1,0],[0.25,1,0],[0,0.75,0],[0,0.5,0],[0,0.25,0]];shape=mxgraph.bpmn.task;whiteSpace=wrap;rectStyle=rounded;size=10;html=1;container=1;expand=0;collapsible=0;taskMarker=abstract;fontSize=10;" vertex="1" parent="NLfXD7O3pRbXmPX5Px7o-8">
          <mxGeometry x="496.6260162601626" y="117" width="94.3089430894309" height="40" as="geometry" />
        </mxCell>
        <mxCell id="NLfXD7O3pRbXmPX5Px7o-91" value="" style="rhombus;whiteSpace=wrap;html=1;fontSize=10;" vertex="1" parent="NLfXD7O3pRbXmPX5Px7o-8">
          <mxGeometry x="659.1788617886178" y="125" width="23.577235772357724" height="24" as="geometry" />
        </mxCell>
        <mxCell id="NLfXD7O3pRbXmPX5Px7o-98" style="edgeStyle=orthogonalEdgeStyle;rounded=0;orthogonalLoop=1;jettySize=auto;html=1;entryX=0.5;entryY=0;entryDx=0;entryDy=0;entryPerimeter=0;" edge="1" parent="NLfXD7O3pRbXmPX5Px7o-8" target="NLfXD7O3pRbXmPX5Px7o-81">
          <mxGeometry relative="1" as="geometry">
            <mxPoint x="542.8373983739837" y="65" as="sourcePoint" />
            <mxPoint x="543.780487804878" y="120" as="targetPoint" />
          </mxGeometry>
        </mxCell>
        <mxCell id="NLfXD7O3pRbXmPX5Px7o-99" value="Si" style="edgeLabel;html=1;align=center;verticalAlign=middle;resizable=0;points=[];fontSize=9;" vertex="1" connectable="0" parent="NLfXD7O3pRbXmPX5Px7o-98">
          <mxGeometry x="-0.3083" relative="1" as="geometry">
            <mxPoint y="4" as="offset" />
          </mxGeometry>
        </mxCell>
        <mxCell id="NLfXD7O3pRbXmPX5Px7o-100" value="Envía solicitud de instalación" style="points=[[0.25,0,0],[0.5,0,0],[0.75,0,0],[1,0.25,0],[1,0.5,0],[1,0.75,0],[0.75,1,0],[0.5,1,0],[0.25,1,0],[0,0.75,0],[0,0.5,0],[0,0.25,0]];shape=mxgraph.bpmn.task;whiteSpace=wrap;rectStyle=rounded;size=10;html=1;container=1;expand=0;collapsible=0;taskMarker=abstract;fontSize=10;" vertex="1" parent="NLfXD7O3pRbXmPX5Px7o-8">
          <mxGeometry x="623.8130081300814" y="187" width="94.3089430894309" height="40" as="geometry" />
        </mxCell>
        <mxCell id="NLfXD7O3pRbXmPX5Px7o-101" style="edgeStyle=orthogonalEdgeStyle;rounded=0;orthogonalLoop=1;jettySize=auto;html=1;entryX=0.5;entryY=0;entryDx=0;entryDy=0;entryPerimeter=0;" edge="1" parent="NLfXD7O3pRbXmPX5Px7o-8" source="NLfXD7O3pRbXmPX5Px7o-91" target="NLfXD7O3pRbXmPX5Px7o-100">
          <mxGeometry relative="1" as="geometry" />
        </mxCell>
        <mxCell id="NLfXD7O3pRbXmPX5Px7o-102" value="Si" style="edgeLabel;html=1;align=center;verticalAlign=middle;resizable=0;points=[];fontSize=8;" vertex="1" connectable="0" parent="NLfXD7O3pRbXmPX5Px7o-101">
          <mxGeometry x="0.5956" y="1" relative="1" as="geometry">
            <mxPoint x="-2" y="-16" as="offset" />
          </mxGeometry>
        </mxCell>
        <mxCell id="NLfXD7O3pRbXmPX5Px7o-142" value="Enviar notificación de que la solicitud fue procesada" style="points=[[0.25,0,0],[0.5,0,0],[0.75,0,0],[1,0.25,0],[1,0.5,0],[1,0.75,0],[0.75,1,0],[0.5,1,0],[0.25,1,0],[0,0.75,0],[0,0.5,0],[0,0.25,0]];shape=mxgraph.bpmn.task;whiteSpace=wrap;rectStyle=rounded;size=10;html=1;container=1;expand=0;collapsible=0;taskMarker=send;verticalAlign=middle;fontSize=10;spacingTop=15;" vertex="1" parent="NLfXD7O3pRbXmPX5Px7o-8">
          <mxGeometry x="800" y="85" width="140" height="50" as="geometry" />
        </mxCell>
        <mxCell id="NLfXD7O3pRbXmPX5Px7o-178" style="edgeStyle=orthogonalEdgeStyle;rounded=0;orthogonalLoop=1;jettySize=auto;html=1;" edge="1" parent="NLfXD7O3pRbXmPX5Px7o-8" source="NLfXD7O3pRbXmPX5Px7o-144" target="NLfXD7O3pRbXmPX5Px7o-142">
          <mxGeometry relative="1" as="geometry">
            <Array as="points">
              <mxPoint x="755" y="110" />
            </Array>
          </mxGeometry>
        </mxCell>
        <mxCell id="NLfXD7O3pRbXmPX5Px7o-144" value="" style="points=[[0.25,0.25,0],[0.5,0,0],[0.75,0.25,0],[1,0.5,0],[0.75,0.75,0],[0.5,1,0],[0.25,0.75,0],[0,0.5,0]];shape=mxgraph.bpmn.gateway2;html=1;verticalLabelPosition=bottom;labelBackgroundColor=#ffffff;verticalAlign=top;align=center;perimeter=rhombusPerimeter;outlineConnect=0;outline=none;symbol=none;gwType=parallel;" vertex="1" parent="NLfXD7O3pRbXmPX5Px7o-8">
          <mxGeometry x="740" y="125" width="30" height="23" as="geometry" />
        </mxCell>
        <mxCell id="NLfXD7O3pRbXmPX5Px7o-145" style="edgeStyle=orthogonalEdgeStyle;rounded=0;orthogonalLoop=1;jettySize=auto;html=1;entryX=0;entryY=0.5;entryDx=0;entryDy=0;entryPerimeter=0;" edge="1" parent="NLfXD7O3pRbXmPX5Px7o-8" source="NLfXD7O3pRbXmPX5Px7o-91" target="NLfXD7O3pRbXmPX5Px7o-144">
          <mxGeometry relative="1" as="geometry" />
        </mxCell>
        <mxCell id="NLfXD7O3pRbXmPX5Px7o-146" value="No" style="edgeLabel;html=1;align=center;verticalAlign=middle;resizable=0;points=[];fontSize=8;" vertex="1" connectable="0" parent="NLfXD7O3pRbXmPX5Px7o-145">
          <mxGeometry x="0.0465" relative="1" as="geometry">
            <mxPoint x="-4" as="offset" />
          </mxGeometry>
        </mxCell>
        <mxCell id="NLfXD7O3pRbXmPX5Px7o-177" value="Actualiza accesos en el sistema" style="points=[[0.25,0,0],[0.5,0,0],[0.75,0,0],[1,0.25,0],[1,0.5,0],[1,0.75,0],[0.75,1,0],[0.5,1,0],[0.25,1,0],[0,0.75,0],[0,0.5,0],[0,0.25,0]];shape=mxgraph.bpmn.task;whiteSpace=wrap;rectStyle=rounded;size=10;html=1;container=1;expand=0;collapsible=0;taskMarker=abstract;fontSize=10;" vertex="1" parent="NLfXD7O3pRbXmPX5Px7o-8">
          <mxGeometry x="800" y="157" width="140" height="40" as="geometry" />
        </mxCell>
        <mxCell id="NLfXD7O3pRbXmPX5Px7o-180" style="edgeStyle=orthogonalEdgeStyle;rounded=0;orthogonalLoop=1;jettySize=auto;html=1;entryX=0;entryY=0.5;entryDx=0;entryDy=0;entryPerimeter=0;exitX=0.5;exitY=1;exitDx=0;exitDy=0;exitPerimeter=0;" edge="1" parent="NLfXD7O3pRbXmPX5Px7o-8" source="NLfXD7O3pRbXmPX5Px7o-144" target="NLfXD7O3pRbXmPX5Px7o-177">
          <mxGeometry relative="1" as="geometry" />
        </mxCell>
        <mxCell id="NLfXD7O3pRbXmPX5Px7o-181" value="" style="points=[[0.25,0.25,0],[0.5,0,0],[0.75,0.25,0],[1,0.5,0],[0.75,0.75,0],[0.5,1,0],[0.25,0.75,0],[0,0.5,0]];shape=mxgraph.bpmn.gateway2;html=1;verticalLabelPosition=bottom;labelBackgroundColor=#ffffff;verticalAlign=top;align=center;perimeter=rhombusPerimeter;outlineConnect=0;outline=none;symbol=none;gwType=parallel;" vertex="1" parent="NLfXD7O3pRbXmPX5Px7o-8">
          <mxGeometry x="970" y="134" width="30" height="23" as="geometry" />
        </mxCell>
        <mxCell id="NLfXD7O3pRbXmPX5Px7o-182" style="edgeStyle=orthogonalEdgeStyle;rounded=0;orthogonalLoop=1;jettySize=auto;html=1;entryX=0.5;entryY=0;entryDx=0;entryDy=0;entryPerimeter=0;" edge="1" parent="NLfXD7O3pRbXmPX5Px7o-8" source="NLfXD7O3pRbXmPX5Px7o-142" target="NLfXD7O3pRbXmPX5Px7o-181">
          <mxGeometry relative="1" as="geometry" />
        </mxCell>
        <mxCell id="NLfXD7O3pRbXmPX5Px7o-183" style="edgeStyle=orthogonalEdgeStyle;rounded=0;orthogonalLoop=1;jettySize=auto;html=1;entryX=0.5;entryY=1;entryDx=0;entryDy=0;entryPerimeter=0;" edge="1" parent="NLfXD7O3pRbXmPX5Px7o-8" source="NLfXD7O3pRbXmPX5Px7o-177" target="NLfXD7O3pRbXmPX5Px7o-181">
          <mxGeometry relative="1" as="geometry" />
        </mxCell>
        <mxCell id="NLfXD7O3pRbXmPX5Px7o-187" style="edgeStyle=orthogonalEdgeStyle;rounded=0;orthogonalLoop=1;jettySize=auto;html=1;" edge="1" parent="NLfXD7O3pRbXmPX5Px7o-8" source="NLfXD7O3pRbXmPX5Px7o-184" target="NLfXD7O3pRbXmPX5Px7o-186">
          <mxGeometry relative="1" as="geometry" />
        </mxCell>
        <mxCell id="NLfXD7O3pRbXmPX5Px7o-184" value="Servicio de actualización de accesos" style="points=[[0.25,0,0],[0.5,0,0],[0.75,0,0],[1,0.25,0],[1,0.5,0],[1,0.75,0],[0.75,1,0],[0.5,1,0],[0.25,1,0],[0,0.75,0],[0,0.5,0],[0,0.25,0]];shape=mxgraph.bpmn.task;whiteSpace=wrap;rectStyle=rounded;size=10;html=1;container=1;expand=0;collapsible=0;taskMarker=abstract;fontSize=10;" vertex="1" parent="NLfXD7O3pRbXmPX5Px7o-8">
          <mxGeometry x="1030.0030081300813" y="125.5" width="94.3089430894309" height="40" as="geometry" />
        </mxCell>
        <mxCell id="NLfXD7O3pRbXmPX5Px7o-185" style="edgeStyle=orthogonalEdgeStyle;rounded=0;orthogonalLoop=1;jettySize=auto;html=1;entryX=0;entryY=0.5;entryDx=0;entryDy=0;entryPerimeter=0;" edge="1" parent="NLfXD7O3pRbXmPX5Px7o-8" source="NLfXD7O3pRbXmPX5Px7o-181" target="NLfXD7O3pRbXmPX5Px7o-184">
          <mxGeometry relative="1" as="geometry" />
        </mxCell>
        <mxCell id="NLfXD7O3pRbXmPX5Px7o-186" value="" style="points=[[0.145,0.145,0],[0.5,0,0],[0.855,0.145,0],[1,0.5,0],[0.855,0.855,0],[0.5,1,0],[0.145,0.855,0],[0,0.5,0]];shape=mxgraph.bpmn.event;html=1;verticalLabelPosition=bottom;labelBackgroundColor=#ffffff;verticalAlign=top;align=center;perimeter=ellipsePerimeter;outlineConnect=0;aspect=fixed;outline=end;symbol=terminate;" vertex="1" parent="NLfXD7O3pRbXmPX5Px7o-8">
          <mxGeometry x="1066.08" y="204.84" width="22.16" height="22.16" as="geometry" />
        </mxCell>
        <mxCell id="NLfXD7O3pRbXmPX5Px7o-188" value="Solicitar documentación faltante" style="points=[[0.25,0,0],[0.5,0,0],[0.75,0,0],[1,0.25,0],[1,0.5,0],[1,0.75,0],[0.75,1,0],[0.5,1,0],[0.25,1,0],[0,0.75,0],[0,0.5,0],[0,0.25,0]];shape=mxgraph.bpmn.task;whiteSpace=wrap;rectStyle=rounded;size=10;html=1;container=1;expand=0;collapsible=0;taskMarker=abstract;fontSize=10;" vertex="1" parent="NLfXD7O3pRbXmPX5Px7o-8">
          <mxGeometry x="607.93" y="34" width="119.07" height="40" as="geometry" />
        </mxCell>
        <mxCell id="NLfXD7O3pRbXmPX5Px7o-41" style="edgeStyle=orthogonalEdgeStyle;rounded=0;orthogonalLoop=1;jettySize=auto;html=1;" edge="1" parent="NLfXD7O3pRbXmPX5Px7o-197" source="NLfXD7O3pRbXmPX5Px7o-28" target="NLfXD7O3pRbXmPX5Px7o-39">
          <mxGeometry relative="1" as="geometry" />
        </mxCell>
        <mxCell id="NLfXD7O3pRbXmPX5Px7o-111" style="edgeStyle=orthogonalEdgeStyle;rounded=0;orthogonalLoop=1;jettySize=auto;html=1;entryX=0.338;entryY=0.979;entryDx=0;entryDy=0;entryPerimeter=0;" edge="1" parent="NLfXD7O3pRbXmPX5Px7o-197" source="NLfXD7O3pRbXmPX5Px7o-43" target="NLfXD7O3pRbXmPX5Px7o-56">
          <mxGeometry relative="1" as="geometry" />
        </mxCell>
        <mxCell id="NLfXD7O3pRbXmPX5Px7o-112" value="Si" style="edgeLabel;html=1;align=center;verticalAlign=middle;resizable=0;points=[];" vertex="1" connectable="0" parent="NLfXD7O3pRbXmPX5Px7o-111">
          <mxGeometry x="-0.8214" y="2" relative="1" as="geometry">
            <mxPoint as="offset" />
          </mxGeometry>
        </mxCell>
        <mxCell id="NLfXD7O3pRbXmPX5Px7o-9" value="Jefe del empleado" style="swimlane;html=1;startSize=30;horizontal=0;container=0;fontSize=10;align=center;" vertex="1" parent="NLfXD7O3pRbXmPX5Px7o-197">
          <mxGeometry y="439" width="1160" height="240" as="geometry" />
        </mxCell>
        <mxCell id="NLfXD7O3pRbXmPX5Px7o-46" value="Enviar notificación de rechazo" style="points=[[0.25,0,0],[0.5,0,0],[0.75,0,0],[1,0.25,0],[1,0.5,0],[1,0.75,0],[0.75,1,0],[0.5,1,0],[0.25,1,0],[0,0.75,0],[0,0.5,0],[0,0.25,0]];shape=mxgraph.bpmn.task;whiteSpace=wrap;rectStyle=rounded;size=10;html=1;container=1;expand=0;collapsible=0;taskMarker=send;verticalAlign=middle;fontSize=10;spacingTop=15;" vertex="1" parent="NLfXD7O3pRbXmPX5Px7o-197">
          <mxGeometry x="198.93" y="609" width="122.6" height="50" as="geometry" />
        </mxCell>
        <mxCell id="NLfXD7O3pRbXmPX5Px7o-53" style="edgeStyle=orthogonalEdgeStyle;rounded=0;orthogonalLoop=1;jettySize=auto;html=1;entryX=0;entryY=0.5;entryDx=0;entryDy=0;entryPerimeter=0;" edge="1" parent="NLfXD7O3pRbXmPX5Px7o-197" source="NLfXD7O3pRbXmPX5Px7o-46" target="NLfXD7O3pRbXmPX5Px7o-52">
          <mxGeometry relative="1" as="geometry" />
        </mxCell>
        <mxCell id="NLfXD7O3pRbXmPX5Px7o-52" value="" style="points=[[0.145,0.145,0],[0.5,0,0],[0.855,0.145,0],[1,0.5,0],[0.855,0.855,0],[0.5,1,0],[0.145,0.855,0],[0,0.5,0]];shape=mxgraph.bpmn.event;html=1;verticalLabelPosition=bottom;labelBackgroundColor=#ffffff;verticalAlign=top;align=center;perimeter=ellipsePerimeter;outlineConnect=0;aspect=fixed;outline=end;symbol=terminate;" vertex="1" parent="NLfXD7O3pRbXmPX5Px7o-197">
          <mxGeometry x="360" y="624.3" width="18.7" height="18.7" as="geometry" />
        </mxCell>
        <mxCell id="NLfXD7O3pRbXmPX5Px7o-106" style="edgeStyle=orthogonalEdgeStyle;rounded=0;orthogonalLoop=1;jettySize=auto;html=1;entryX=0.509;entryY=0.032;entryDx=0;entryDy=0;entryPerimeter=0;" edge="1" parent="NLfXD7O3pRbXmPX5Px7o-197" source="NLfXD7O3pRbXmPX5Px7o-43" target="NLfXD7O3pRbXmPX5Px7o-46">
          <mxGeometry relative="1" as="geometry" />
        </mxCell>
        <mxCell id="NLfXD7O3pRbXmPX5Px7o-107" value="No" style="edgeLabel;html=1;align=center;verticalAlign=middle;resizable=0;points=[];" vertex="1" connectable="0" parent="NLfXD7O3pRbXmPX5Px7o-106">
          <mxGeometry x="-0.4348" relative="1" as="geometry">
            <mxPoint y="9" as="offset" />
          </mxGeometry>
        </mxCell>
        <mxCell id="NLfXD7O3pRbXmPX5Px7o-43" value="" style="rhombus;whiteSpace=wrap;html=1;fontSize=10;" vertex="1" parent="NLfXD7O3pRbXmPX5Px7o-197">
          <mxGeometry x="244.42" y="520.8199999999999" width="33.58" height="18.18" as="geometry" />
        </mxCell>
        <mxCell id="NLfXD7O3pRbXmPX5Px7o-44" value="" style="edgeStyle=orthogonalEdgeStyle;rounded=0;orthogonalLoop=1;jettySize=auto;html=1;" edge="1" parent="NLfXD7O3pRbXmPX5Px7o-197" source="NLfXD7O3pRbXmPX5Px7o-39" target="NLfXD7O3pRbXmPX5Px7o-43">
          <mxGeometry relative="1" as="geometry" />
        </mxCell>
        <mxCell id="NLfXD7O3pRbXmPX5Px7o-45" value="¿Se aprobó la solicitud?" style="edgeLabel;html=1;align=center;verticalAlign=middle;resizable=0;points=[];fontSize=8;" vertex="1" connectable="0" parent="NLfXD7O3pRbXmPX5Px7o-44">
          <mxGeometry x="0.1769" y="-1" relative="1" as="geometry">
            <mxPoint x="3" y="-9" as="offset" />
          </mxGeometry>
        </mxCell>
        <mxCell id="NLfXD7O3pRbXmPX5Px7o-39" value="Revisar solicitud" style="points=[[0.25,0,0],[0.5,0,0],[0.75,0,0],[1,0.25,0],[1,0.5,0],[1,0.75,0],[0.75,1,0],[0.5,1,0],[0.25,1,0],[0,0.75,0],[0,0.5,0],[0,0.25,0]];shape=mxgraph.bpmn.task;whiteSpace=wrap;rectStyle=rounded;size=10;html=1;container=1;expand=0;collapsible=0;taskMarker=abstract;fontSize=10;" vertex="1" parent="NLfXD7O3pRbXmPX5Px7o-197">
          <mxGeometry x="206.53658536585365" y="457.18333333333334" width="108.45528455284553" height="17.225" as="geometry" />
        </mxCell>
        <mxCell id="NLfXD7O3pRbXmPX5Px7o-113" value="Equipo de soporte de&lt;div&gt;Software&lt;/div&gt;" style="swimlane;html=1;startSize=30;horizontal=0;container=0;fontSize=10;" vertex="1" parent="NLfXD7O3pRbXmPX5Px7o-197">
          <mxGeometry y="679" width="1160" height="140" as="geometry" />
        </mxCell>
        <mxCell id="NLfXD7O3pRbXmPX5Px7o-140" style="edgeStyle=orthogonalEdgeStyle;rounded=0;orthogonalLoop=1;jettySize=auto;html=1;" edge="1" parent="NLfXD7O3pRbXmPX5Px7o-113" source="NLfXD7O3pRbXmPX5Px7o-137" target="NLfXD7O3pRbXmPX5Px7o-139">
          <mxGeometry relative="1" as="geometry" />
        </mxCell>
        <mxCell id="NLfXD7O3pRbXmPX5Px7o-137" value="Recibe solicitud de instalación" style="points=[[0.25,0,0],[0.5,0,0],[0.75,0,0],[1,0.25,0],[1,0.5,0],[1,0.75,0],[0.75,1,0],[0.5,1,0],[0.25,1,0],[0,0.75,0],[0,0.5,0],[0,0.25,0]];shape=mxgraph.bpmn.task;whiteSpace=wrap;rectStyle=rounded;size=10;html=1;container=1;expand=0;collapsible=0;taskMarker=abstract;fontSize=10;" vertex="1" parent="NLfXD7O3pRbXmPX5Px7o-113">
          <mxGeometry x="623.8130081300814" y="18" width="94.3089430894309" height="40" as="geometry" />
        </mxCell>
        <mxCell id="NLfXD7O3pRbXmPX5Px7o-139" value="Realiza instalación de software" style="points=[[0.25,0,0],[0.5,0,0],[0.75,0,0],[1,0.25,0],[1,0.5,0],[1,0.75,0],[0.75,1,0],[0.5,1,0],[0.25,1,0],[0,0.75,0],[0,0.5,0],[0,0.25,0]];shape=mxgraph.bpmn.task;whiteSpace=wrap;rectStyle=rounded;size=10;html=1;container=1;expand=0;collapsible=0;taskMarker=abstract;fontSize=10;" vertex="1" parent="NLfXD7O3pRbXmPX5Px7o-113">
          <mxGeometry x="623.8130081300814" y="80" width="94.3089430894309" height="40" as="geometry" />
        </mxCell>
        <mxCell id="NLfXD7O3pRbXmPX5Px7o-138" style="edgeStyle=orthogonalEdgeStyle;rounded=0;orthogonalLoop=1;jettySize=auto;html=1;" edge="1" parent="NLfXD7O3pRbXmPX5Px7o-197" source="NLfXD7O3pRbXmPX5Px7o-100" target="NLfXD7O3pRbXmPX5Px7o-137">
          <mxGeometry relative="1" as="geometry" />
        </mxCell>
        <mxCell id="NLfXD7O3pRbXmPX5Px7o-141" style="edgeStyle=orthogonalEdgeStyle;rounded=0;orthogonalLoop=1;jettySize=auto;html=1;entryX=0.663;entryY=1.01;entryDx=0;entryDy=0;entryPerimeter=0;" edge="1" parent="NLfXD7O3pRbXmPX5Px7o-197" source="NLfXD7O3pRbXmPX5Px7o-139" target="NLfXD7O3pRbXmPX5Px7o-56">
          <mxGeometry relative="1" as="geometry" />
        </mxCell>
        <mxCell id="NLfXD7O3pRbXmPX5Px7o-192" style="edgeStyle=orthogonalEdgeStyle;rounded=0;orthogonalLoop=1;jettySize=auto;html=1;entryX=0.5;entryY=1;entryDx=0;entryDy=0;entryPerimeter=0;" edge="1" parent="NLfXD7O3pRbXmPX5Px7o-197" source="NLfXD7O3pRbXmPX5Px7o-188" target="NLfXD7O3pRbXmPX5Px7o-191">
          <mxGeometry relative="1" as="geometry" />
        </mxCell>
        <mxCell id="NLfXD7O3pRbXmPX5Px7o-196" style="edgeStyle=orthogonalEdgeStyle;rounded=0;orthogonalLoop=1;jettySize=auto;html=1;entryX=0.5;entryY=0;entryDx=0;entryDy=0;entryPerimeter=0;" edge="1" parent="NLfXD7O3pRbXmPX5Px7o-197" source="NLfXD7O3pRbXmPX5Px7o-193" target="NLfXD7O3pRbXmPX5Px7o-56">
          <mxGeometry relative="1" as="geometry" />
        </mxCell>
      </root>
    </mxGraphModel>
  </diagram>
</mxfile>
